# xmcd
#
# Track frame offsets:
#   183
#   12975
#   29465
#   47588
#   65973
#   81850
#   100270
#   121048
#   139150
#   156578
#   175350
#   190183
#   204010
#   218938
#   236235
#   251043
#   270905
#   285995
#
# Disc length: 4170 seconds
#
# Revision: 3
# Processed by: cddbd v1.5.1PL0 Copyright (c) Steve Scherf et al.
# Submitted via: Media_Universe 3.0
#
DISCID=04104812
DTITLE=Various Artist - Soft Metal Ballads
DYEAR=1900
DGENRE=ballads
TTITLE0=Queen - You're My Best Friend
TTITLE1=Wilson Phillips - Hold On
TTITLE2=Bryan Adams - Heaven
TTITLE3=Roxette - Listen To Your Heart
TTITLE4=Eric Clapton - Cocaine
TTITLE5=Richard Marx - Right Here Waiting
TTITLE6=Mr. Mister - Broken Wings
TTITLE7=Alannah Myles - Black Velvet
TTITLE8=Poison - Every Rose Has It's Thorn
TTITLE9=Tina Turner - The Best
TTITLE10=INXS - Mystify
TTITLE11=Bangles - Manic Monday
TTITLE12=Thin Lizzy - Sarah
TTITLE13=Chris Rea - The Road To Hell
TTITLE14=Robin Beck - First Time
TTITLE15=Eagles - Heartache Tonight
TTITLE16=REO Speedwagon - Keep On Loving You
TTITLE17=Far Corporation - Stairway To Heaven
EXTD=
EXTT0=
EXTT1=
EXTT2=
EXTT3=
EXTT4=
EXTT5=
EXTT6=
EXTT7=
EXTT8=
EXTT9=
EXTT10=
EXTT11=
EXTT12=
EXTT13=
EXTT14=
EXTT15=
EXTT16=
EXTT17=
PLAYORDER=
